<?xml version="1.0" encoding="UTF-8" standalone="no"?>
<svg width="230px" height="96px" viewBox="0 0 230 96" version="1.1" xmlns="http://www.w3.org/2000/svg" xmlns:xlink="http://www.w3.org/1999/xlink" xmlns:sketch="http://www.bohemiancoding.com/sketch/ns">
    <!-- Generator: Sketch 3.2.2 (9983) - http://www.bohemiancoding.com/sketch -->
    <title>logo</title>
    <desc>Created with Sketch.</desc>
    <defs></defs>
    <g id="Page-1" stroke="none" stroke-width="1" fill="none" fill-rule="evenodd" sketch:type="MSPage">
        <g id="-2" sketch:type="MSLayerGroup" transform="translate(1.000000, 48.000000)" fill="#81C847">
            <g id="convo-logo" transform="translate(0.000000, 2.000000)" sketch:type="MSShapeGroup">
                <path d="M209.027094,21.4402253 C209.027094,10.2394828 199.373177,6.46672805 194.016468,6.46672805 C183.950708,6.46672805 178.947262,14.7914814 178.947262,21.4402253 C178.947262,31.5023419 187.541107,36.4736779 194.016468,36.4736779 C201.903904,36.4736779 209.027094,30.0050912 209.027094,21.4402253 M215.972536,21.4402253 C215.972536,34.4370045 204.906659,42.8222375 194.016468,42.8222375 C182.302706,42.8222375 171.942436,33.4192795 171.942436,21.4402253 C171.942436,8.68268469 183.126793,0.0580966125 194.13449,0.0580966125 C199.373177,0.0580966125 204.612093,1.97474295 208.674004,5.50820095 C213.265264,9.52118469 215.972536,15.3309625 215.972536,21.4402253" id="Fill-2"></path>
                <path d="M166.46872,0.477189295 C168.234457,0.477189295 170.05952,1.67507141 170.05952,3.53164593 C170.05952,3.83130583 169.941556,4.13067439 169.882746,4.3700294 L154.283732,40.6063275 C153.753868,41.8040931 152.341049,42.2831527 151.222797,42.2831527 C150.045562,42.2831527 148.691726,41.8040931 148.162033,40.6063275 L132.738992,4.61014187 C132.503866,4.13067439 132.503866,3.83130583 132.503866,3.41191016 C132.503866,1.61499959 134.152326,0.477189295 135.917891,0.477189295 C137.271842,0.477189295 138.625565,1.13593997 139.331974,2.57311883 L151.222797,30.3644617 L163.23124,2.57311883 C163.937649,1.01632073 165.173522,0.477189295 166.46872,0.477189295" id="Fill-4"></path>
                <path d="M130.392706,22.8777771 L130.392706,39.1085874 C130.392706,41.0252337 128.626282,42.2831877 126.919584,42.2831877 C125.212543,42.2831877 123.446405,41.0252337 123.446405,39.1085874 L123.446405,22.2787486 C123.446405,13.8934573 118.619389,6.76606165 111.555983,6.76606165 C103.60905,6.76606165 99.7831813,14.6721768 99.7831813,22.8777771 L99.7831813,39.1085874 C99.7831813,41.0252337 97.9585196,42.2831877 96.3101739,42.2831877 C94.603018,42.2831877 92.7776119,41.0252337 92.7776119,39.1085874 L92.7776119,21.4997378 C92.7776119,10.7189153 100.430322,0.117842141 111.497058,0.117842141 C120.385527,0.117842141 127.155226,6.8260752 129.50958,15.0912812 C130.215989,17.7867053 130.392706,20.2420169 130.392706,22.8777771" id="Fill-6"></path>
                <path d="M79.7296486,21.4402253 C79.7296486,10.2394828 70.0757313,6.46672805 64.7190229,6.46672805 C54.6532053,6.46672805 49.6495871,14.7914814 49.6495871,21.4402253 C49.6495871,31.5023419 58.2440049,36.4736779 64.7190229,36.4736779 C72.6068023,36.4736779 79.7296486,30.0050912 79.7296486,21.4402253 M86.6750908,21.4402253 C86.6750908,34.4370045 75.6091565,42.8222375 64.7190229,42.8222375 C53.0050887,42.8222375 42.644762,33.4192795 42.644762,21.4402253 C42.644762,8.68268469 53.8291756,0.0580966125 64.8366433,0.0580966125 C70.0757313,0.0580966125 75.3144185,1.97474295 79.3765012,5.50820095 C83.967761,9.52118469 86.6750908,15.3309625 86.6750908,21.4402253" id="Fill-8"></path>
                <path d="M0.0274581124,21.3801419 C0.0274581124,8.50298198 10.8588961,0.0581432249 21.983526,0.0581432249 C24.0441729,0.0581432249 26.340175,0.417175745 28.4590594,1.01632073 C31.5788621,1.9747313 38.3480456,5.26883428 38.3480456,8.32329092 C38.3480456,10.3594982 36.4057635,11.4978329 34.8163998,11.4978329 C33.9333881,11.4978329 33.0502619,11.1980565 32.4029491,10.5993194 C29.4009385,7.78421775 25.9282747,6.4667164 21.983526,6.4667164 C14.2137105,6.4667164 6.91431919,12.8149264 6.91431919,21.4402137 C6.91431919,29.2863153 13.44872,36.5932855 21.983526,36.5932855 C25.1627688,36.5932855 27.9295387,35.5749196 30.2835493,34.0776107 C30.8134136,33.7783587 31.2256002,33.3588465 31.7554072,32.9994644 C32.8151357,32.2210944 33.7566713,31.2622178 34.9929449,31.2622178 C36.9355705,31.2622178 38.5246479,32.6404318 38.5246479,34.4369928 C38.5246479,35.3951121 38.1128049,36.1138763 37.5240159,36.6533573 C33.3444846,40.8456825 27.5762195,42.9418451 21.9249449,42.9418451 C14.8024995,42.9418451 7.85671368,39.4080375 3.73604984,33.3588465 C1.20497879,29.8849942 0.0274581124,25.8721852 0.0274581124,21.3801419" id="Fill-10"></path>
            </g>
        </g>
        <g id="1" sketch:type="MSLayerGroup" transform="translate(1.000000, 0.000000)" fill="#7AB34B">
            <g id="convo-logo" transform="translate(0.000000, 2.000000)" sketch:type="MSShapeGroup">
                <path d="M209.027094,21.4402253 C209.027094,10.2394828 199.373177,6.46672805 194.016468,6.46672805 C183.950708,6.46672805 178.947262,14.7914814 178.947262,21.4402253 C178.947262,31.5023419 187.541107,36.4736779 194.016468,36.4736779 C201.903904,36.4736779 209.027094,30.0050912 209.027094,21.4402253 M215.972536,21.4402253 C215.972536,34.4370045 204.906659,42.8222375 194.016468,42.8222375 C182.302706,42.8222375 171.942436,33.4192795 171.942436,21.4402253 C171.942436,8.68268469 183.126793,0.0580966125 194.13449,0.0580966125 C199.373177,0.0580966125 204.612093,1.97474295 208.674004,5.50820095 C213.265264,9.52118469 215.972536,15.3309625 215.972536,21.4402253" id="Fill-2"></path>
                <path d="M166.46872,0.477189295 C168.234457,0.477189295 170.05952,1.67507141 170.05952,3.53164593 C170.05952,3.83130583 169.941556,4.13067439 169.882746,4.3700294 L154.283732,40.6063275 C153.753868,41.8040931 152.341049,42.2831527 151.222797,42.2831527 C150.045562,42.2831527 148.691726,41.8040931 148.162033,40.6063275 L132.738992,4.61014187 C132.503866,4.13067439 132.503866,3.83130583 132.503866,3.41191016 C132.503866,1.61499959 134.152326,0.477189295 135.917891,0.477189295 C137.271842,0.477189295 138.625565,1.13593997 139.331974,2.57311883 L151.222797,30.3644617 L163.23124,2.57311883 C163.937649,1.01632073 165.173522,0.477189295 166.46872,0.477189295" id="Fill-4"></path>
                <path d="M130.392706,22.8777771 L130.392706,39.1085874 C130.392706,41.0252337 128.626282,42.2831877 126.919584,42.2831877 C125.212543,42.2831877 123.446405,41.0252337 123.446405,39.1085874 L123.446405,22.2787486 C123.446405,13.8934573 118.619389,6.76606165 111.555983,6.76606165 C103.60905,6.76606165 99.7831813,14.6721768 99.7831813,22.8777771 L99.7831813,39.1085874 C99.7831813,41.0252337 97.9585196,42.2831877 96.3101739,42.2831877 C94.603018,42.2831877 92.7776119,41.0252337 92.7776119,39.1085874 L92.7776119,21.4997378 C92.7776119,10.7189153 100.430322,0.117842141 111.497058,0.117842141 C120.385527,0.117842141 127.155226,6.8260752 129.50958,15.0912812 C130.215989,17.7867053 130.392706,20.2420169 130.392706,22.8777771" id="Fill-6"></path>
                <path d="M79.7296486,21.4402253 C79.7296486,10.2394828 70.0757313,6.46672805 64.7190229,6.46672805 C54.6532053,6.46672805 49.6495871,14.7914814 49.6495871,21.4402253 C49.6495871,31.5023419 58.2440049,36.4736779 64.7190229,36.4736779 C72.6068023,36.4736779 79.7296486,30.0050912 79.7296486,21.4402253 M86.6750908,21.4402253 C86.6750908,34.4370045 75.6091565,42.8222375 64.7190229,42.8222375 C53.0050887,42.8222375 42.644762,33.4192795 42.644762,21.4402253 C42.644762,8.68268469 53.8291756,0.0580966125 64.8366433,0.0580966125 C70.0757313,0.0580966125 75.3144185,1.97474295 79.3765012,5.50820095 C83.967761,9.52118469 86.6750908,15.3309625 86.6750908,21.4402253" id="Fill-8"></path>
                <path d="M0.0274581124,21.3801419 C0.0274581124,8.50298198 10.8588961,0.0581432249 21.983526,0.0581432249 C24.0441729,0.0581432249 26.340175,0.417175745 28.4590594,1.01632073 C31.5788621,1.9747313 38.3480456,5.26883428 38.3480456,8.32329092 C38.3480456,10.3594982 36.4057635,11.4978329 34.8163998,11.4978329 C33.9333881,11.4978329 33.0502619,11.1980565 32.4029491,10.5993194 C29.4009385,7.78421775 25.9282747,6.4667164 21.983526,6.4667164 C14.2137105,6.4667164 6.91431919,12.8149264 6.91431919,21.4402137 C6.91431919,29.2863153 13.44872,36.5932855 21.983526,36.5932855 C25.1627688,36.5932855 27.9295387,35.5749196 30.2835493,34.0776107 C30.8134136,33.7783587 31.2256002,33.3588465 31.7554072,32.9994644 C32.8151357,32.2210944 33.7566713,31.2622178 34.9929449,31.2622178 C36.9355705,31.2622178 38.5246479,32.6404318 38.5246479,34.4369928 C38.5246479,35.3951121 38.1128049,36.1138763 37.5240159,36.6533573 C33.3444846,40.8456825 27.5762195,42.9418451 21.9249449,42.9418451 C14.8024995,42.9418451 7.85671368,39.4080375 3.73604984,33.3588465 C1.20497879,29.8849942 0.0274581124,25.8721852 0.0274581124,21.3801419" id="Fill-10"></path>
            </g>
        </g>
    </g>
</svg>